<?xml version="1.0" encoding="utf-8"?>
<!-- Generator: Adobe Illustrator 22.0.0, SVG Export Plug-In . SVG Version: 6.00 Build 0)  -->
<svg version="1.1" id="图层_1" xmlns="http://www.w3.org/2000/svg" xmlns:xlink="http://www.w3.org/1999/xlink" x="0px" y="0px"
	 viewBox="0 0 128 128" style="enable-background:new 0 0 128 128;" xml:space="preserve">
<style type="text/css">
	.st0{fill:#040000;stroke:#040000;stroke-miterlimit:10;}
</style>
<path class="st0" d="M40.1,107.4c0.6,0.1,1.1,0.2,1.7,0.2 M39.6,107.7c0.9,0,1.9-0.4,2.5-1c-1,5.7-2.2,12.9-3.6,19.1
	c0,0.1,0.1,0.3,0.2,0.3c0,0,0.1,0,0.2,0c0.1,0,0.2-0.1,0.2-0.1s3.5-3.9,7.2-5.4c0.1-0.1,0.2-0.1,0.2-0.3c0-0.2,1.3-16,3-25.8
	c2-12.8,11.8-47.9,21.8-60.2c-5.2,24.2-9.6,36.9-13.5,58.7c0,0.1,0.1,0.3,0.2,0.3c0.1,0.1,0.3,0,0.4-0.1c2.8-2.2,2.3-2.2,5.1-4.8
	c2.7-2.7,5.1-5,7.7-8.1c12.3-14.4,18.8-32,20.2-53.3c0-0.1-0.1-0.3-0.3-0.3c-1.8-0.5-4.4-1.3-6.1-2.3l-3.7-2.1c2.2-1.2,8-3,9.8-3.5
	c0.1-0.1,0.2-0.2,0.3-0.3c0.2-5.5,0.8-11.1-0.2-16.5c0-0.1-0.1-0.2-0.2-0.3c0,0,0,0-0.1,0c0,0-0.1,0-0.1,0.1
	C87.9,3.7,77.9,9.2,70,17.9C64,24.3,59.1,31.3,55,38.9c-5.1,9.8-7.8,16.2-9.6,26.8c0,0.1,0,0.3,0.2,0.3c1.4,0.9,6.2,5.4,7.3,6.6
	c-1.7-0.3-7.2,1.3-8.4,1.4c-0.2,0-0.3,0.1-0.4,0.3c-0.7,8.1-0.7,13.4-0.3,21.3c-0.1,0.6-0.2,1.6-0.4,2.8c-0.8-0.2-1.2-1.3-3.5-1.3
	c-3.5,0-5.4,2.1-5,6.5C35.2,105.3,37.1,107.4,39.6,107.7 M41.2,105.6c-1.7,0.1-4-1.1-3.3-3.7c0.3-1.4,1.3-3.5,4.9-2.5
	c1.4,0.9,1.6,2.4,1.3,4.2C43.7,105,42.5,105.6,41.2,105.6z"/>
</svg>
